<mxfile host="app.diagrams.net" agent="Mozilla/5.0 (Macintosh; Intel Mac OS X 10_15_7) AppleWebKit/537.36 (KHTML, like Gecko) Chrome/130.0.0.0 Safari/537.36" version="24.8.3">
  <diagram name="Page-1" id="uMUQG2mPH0FVotczIO6_">
    <mxGraphModel dx="1735" dy="1056" grid="1" gridSize="10" guides="1" tooltips="1" connect="1" arrows="1" fold="1" page="1" pageScale="1" pageWidth="827" pageHeight="1169" math="0" shadow="0">
      <root>
        <mxCell id="0" />
        <mxCell id="1" parent="0" />
        <mxCell id="w3fj2gbgNoyU7OF5bVDR-1" value="" style="endArrow=none;html=1;rounded=0;" parent="1" edge="1">
          <mxGeometry width="50" height="50" relative="1" as="geometry">
            <mxPoint x="160" y="320" as="sourcePoint" />
            <mxPoint x="200" y="320" as="targetPoint" />
          </mxGeometry>
        </mxCell>
        <mxCell id="w3fj2gbgNoyU7OF5bVDR-2" value="" style="endArrow=none;html=1;rounded=0;" parent="1" edge="1">
          <mxGeometry width="50" height="50" relative="1" as="geometry">
            <mxPoint x="200" y="320" as="sourcePoint" />
            <mxPoint x="200" y="280" as="targetPoint" />
          </mxGeometry>
        </mxCell>
        <mxCell id="w3fj2gbgNoyU7OF5bVDR-3" value="" style="endArrow=none;html=1;rounded=0;" parent="1" edge="1">
          <mxGeometry width="50" height="50" relative="1" as="geometry">
            <mxPoint x="200" y="280" as="sourcePoint" />
            <mxPoint x="240" y="280" as="targetPoint" />
          </mxGeometry>
        </mxCell>
        <mxCell id="w3fj2gbgNoyU7OF5bVDR-4" value="" style="endArrow=none;html=1;rounded=0;" parent="1" edge="1">
          <mxGeometry width="50" height="50" relative="1" as="geometry">
            <mxPoint x="240" y="320" as="sourcePoint" />
            <mxPoint x="240" y="280" as="targetPoint" />
          </mxGeometry>
        </mxCell>
        <mxCell id="w3fj2gbgNoyU7OF5bVDR-6" value="" style="endArrow=none;html=1;rounded=0;" parent="1" edge="1">
          <mxGeometry width="50" height="50" relative="1" as="geometry">
            <mxPoint x="240" y="320" as="sourcePoint" />
            <mxPoint x="280" y="320" as="targetPoint" />
          </mxGeometry>
        </mxCell>
        <mxCell id="w3fj2gbgNoyU7OF5bVDR-7" value="" style="endArrow=none;html=1;rounded=0;" parent="1" edge="1">
          <mxGeometry width="50" height="50" relative="1" as="geometry">
            <mxPoint x="280" y="320" as="sourcePoint" />
            <mxPoint x="280" y="280" as="targetPoint" />
          </mxGeometry>
        </mxCell>
        <mxCell id="w3fj2gbgNoyU7OF5bVDR-8" value="" style="endArrow=none;html=1;rounded=0;" parent="1" edge="1">
          <mxGeometry width="50" height="50" relative="1" as="geometry">
            <mxPoint x="280" y="280" as="sourcePoint" />
            <mxPoint x="320" y="280" as="targetPoint" />
          </mxGeometry>
        </mxCell>
        <mxCell id="w3fj2gbgNoyU7OF5bVDR-9" value="" style="endArrow=none;html=1;rounded=0;" parent="1" edge="1">
          <mxGeometry width="50" height="50" relative="1" as="geometry">
            <mxPoint x="320" y="320" as="sourcePoint" />
            <mxPoint x="320" y="280" as="targetPoint" />
          </mxGeometry>
        </mxCell>
        <mxCell id="w3fj2gbgNoyU7OF5bVDR-10" value="" style="endArrow=none;html=1;rounded=0;" parent="1" edge="1">
          <mxGeometry width="50" height="50" relative="1" as="geometry">
            <mxPoint x="320" y="320" as="sourcePoint" />
            <mxPoint x="360" y="320" as="targetPoint" />
          </mxGeometry>
        </mxCell>
        <mxCell id="w3fj2gbgNoyU7OF5bVDR-11" value="" style="endArrow=none;html=1;rounded=0;" parent="1" edge="1">
          <mxGeometry width="50" height="50" relative="1" as="geometry">
            <mxPoint x="360" y="320" as="sourcePoint" />
            <mxPoint x="360" y="280" as="targetPoint" />
          </mxGeometry>
        </mxCell>
        <mxCell id="w3fj2gbgNoyU7OF5bVDR-12" value="" style="endArrow=none;html=1;rounded=0;" parent="1" edge="1">
          <mxGeometry width="50" height="50" relative="1" as="geometry">
            <mxPoint x="360" y="280" as="sourcePoint" />
            <mxPoint x="400" y="280" as="targetPoint" />
          </mxGeometry>
        </mxCell>
        <mxCell id="w3fj2gbgNoyU7OF5bVDR-13" value="" style="endArrow=none;html=1;rounded=0;" parent="1" edge="1">
          <mxGeometry width="50" height="50" relative="1" as="geometry">
            <mxPoint x="400" y="320" as="sourcePoint" />
            <mxPoint x="400" y="280" as="targetPoint" />
          </mxGeometry>
        </mxCell>
        <mxCell id="w3fj2gbgNoyU7OF5bVDR-14" value="" style="endArrow=none;html=1;rounded=0;" parent="1" edge="1">
          <mxGeometry width="50" height="50" relative="1" as="geometry">
            <mxPoint x="400" y="320" as="sourcePoint" />
            <mxPoint x="440" y="320" as="targetPoint" />
          </mxGeometry>
        </mxCell>
        <mxCell id="w3fj2gbgNoyU7OF5bVDR-15" value="" style="endArrow=none;html=1;rounded=0;" parent="1" edge="1">
          <mxGeometry width="50" height="50" relative="1" as="geometry">
            <mxPoint x="440" y="320" as="sourcePoint" />
            <mxPoint x="440" y="280" as="targetPoint" />
          </mxGeometry>
        </mxCell>
        <mxCell id="w3fj2gbgNoyU7OF5bVDR-16" value="" style="endArrow=none;html=1;rounded=0;" parent="1" edge="1">
          <mxGeometry width="50" height="50" relative="1" as="geometry">
            <mxPoint x="440" y="280" as="sourcePoint" />
            <mxPoint x="480" y="280" as="targetPoint" />
          </mxGeometry>
        </mxCell>
        <mxCell id="w3fj2gbgNoyU7OF5bVDR-17" value="" style="endArrow=none;html=1;rounded=0;" parent="1" edge="1">
          <mxGeometry width="50" height="50" relative="1" as="geometry">
            <mxPoint x="480" y="320" as="sourcePoint" />
            <mxPoint x="480" y="280" as="targetPoint" />
          </mxGeometry>
        </mxCell>
        <mxCell id="w3fj2gbgNoyU7OF5bVDR-18" value="" style="endArrow=none;html=1;rounded=0;" parent="1" edge="1">
          <mxGeometry width="50" height="50" relative="1" as="geometry">
            <mxPoint x="480" y="320" as="sourcePoint" />
            <mxPoint x="520" y="320" as="targetPoint" />
          </mxGeometry>
        </mxCell>
        <mxCell id="w3fj2gbgNoyU7OF5bVDR-19" value="" style="endArrow=none;html=1;rounded=0;" parent="1" edge="1">
          <mxGeometry width="50" height="50" relative="1" as="geometry">
            <mxPoint x="520" y="320" as="sourcePoint" />
            <mxPoint x="520" y="280" as="targetPoint" />
          </mxGeometry>
        </mxCell>
        <mxCell id="w3fj2gbgNoyU7OF5bVDR-20" value="" style="endArrow=none;html=1;rounded=0;" parent="1" edge="1">
          <mxGeometry width="50" height="50" relative="1" as="geometry">
            <mxPoint x="520" y="280" as="sourcePoint" />
            <mxPoint x="560" y="280" as="targetPoint" />
          </mxGeometry>
        </mxCell>
        <mxCell id="w3fj2gbgNoyU7OF5bVDR-21" value="" style="endArrow=none;html=1;rounded=0;" parent="1" edge="1">
          <mxGeometry width="50" height="50" relative="1" as="geometry">
            <mxPoint x="560" y="320" as="sourcePoint" />
            <mxPoint x="560" y="280" as="targetPoint" />
          </mxGeometry>
        </mxCell>
        <mxCell id="w3fj2gbgNoyU7OF5bVDR-22" value="" style="endArrow=none;html=1;rounded=0;" parent="1" edge="1">
          <mxGeometry width="50" height="50" relative="1" as="geometry">
            <mxPoint x="560" y="320" as="sourcePoint" />
            <mxPoint x="600" y="320" as="targetPoint" />
          </mxGeometry>
        </mxCell>
        <mxCell id="w3fj2gbgNoyU7OF5bVDR-23" value="" style="endArrow=none;html=1;rounded=0;" parent="1" edge="1">
          <mxGeometry width="50" height="50" relative="1" as="geometry">
            <mxPoint x="600" y="320" as="sourcePoint" />
            <mxPoint x="600" y="280" as="targetPoint" />
          </mxGeometry>
        </mxCell>
        <mxCell id="w3fj2gbgNoyU7OF5bVDR-24" value="" style="endArrow=none;html=1;rounded=0;" parent="1" edge="1">
          <mxGeometry width="50" height="50" relative="1" as="geometry">
            <mxPoint x="600" y="280" as="sourcePoint" />
            <mxPoint x="640" y="280" as="targetPoint" />
          </mxGeometry>
        </mxCell>
        <mxCell id="w3fj2gbgNoyU7OF5bVDR-25" value="" style="endArrow=none;html=1;rounded=0;" parent="1" edge="1">
          <mxGeometry width="50" height="50" relative="1" as="geometry">
            <mxPoint x="640" y="320" as="sourcePoint" />
            <mxPoint x="640" y="280" as="targetPoint" />
          </mxGeometry>
        </mxCell>
        <mxCell id="w3fj2gbgNoyU7OF5bVDR-26" value="" style="endArrow=none;html=1;rounded=0;" parent="1" edge="1">
          <mxGeometry width="50" height="50" relative="1" as="geometry">
            <mxPoint x="640" y="320" as="sourcePoint" />
            <mxPoint x="680" y="320" as="targetPoint" />
          </mxGeometry>
        </mxCell>
        <mxCell id="w3fj2gbgNoyU7OF5bVDR-48" value="&lt;font style=&quot;font-size: 24px;&quot;&gt;CLK&lt;/font&gt;" style="text;html=1;align=center;verticalAlign=middle;whiteSpace=wrap;rounded=0;" parent="1" vertex="1">
          <mxGeometry x="90" y="300" width="60" height="30" as="geometry" />
        </mxCell>
        <mxCell id="w3fj2gbgNoyU7OF5bVDR-49" value="" style="endArrow=none;html=1;rounded=0;" parent="1" edge="1">
          <mxGeometry width="50" height="50" relative="1" as="geometry">
            <mxPoint x="680" y="320" as="sourcePoint" />
            <mxPoint x="680" y="280" as="targetPoint" />
          </mxGeometry>
        </mxCell>
        <mxCell id="w3fj2gbgNoyU7OF5bVDR-50" value="" style="endArrow=none;html=1;rounded=0;" parent="1" edge="1">
          <mxGeometry width="50" height="50" relative="1" as="geometry">
            <mxPoint x="680" y="280" as="sourcePoint" />
            <mxPoint x="720" y="280" as="targetPoint" />
          </mxGeometry>
        </mxCell>
        <mxCell id="w3fj2gbgNoyU7OF5bVDR-51" value="" style="endArrow=none;html=1;rounded=0;" parent="1" edge="1">
          <mxGeometry width="50" height="50" relative="1" as="geometry">
            <mxPoint x="720" y="320" as="sourcePoint" />
            <mxPoint x="720" y="280" as="targetPoint" />
          </mxGeometry>
        </mxCell>
        <mxCell id="w3fj2gbgNoyU7OF5bVDR-52" value="" style="endArrow=none;html=1;rounded=0;" parent="1" edge="1">
          <mxGeometry width="50" height="50" relative="1" as="geometry">
            <mxPoint x="720" y="320" as="sourcePoint" />
            <mxPoint x="760" y="320" as="targetPoint" />
          </mxGeometry>
        </mxCell>
        <mxCell id="w3fj2gbgNoyU7OF5bVDR-53" value="" style="endArrow=none;html=1;rounded=0;" parent="1" edge="1">
          <mxGeometry width="50" height="50" relative="1" as="geometry">
            <mxPoint x="760" y="320" as="sourcePoint" />
            <mxPoint x="760" y="280" as="targetPoint" />
          </mxGeometry>
        </mxCell>
        <mxCell id="w3fj2gbgNoyU7OF5bVDR-54" value="" style="endArrow=none;html=1;rounded=0;" parent="1" edge="1">
          <mxGeometry width="50" height="50" relative="1" as="geometry">
            <mxPoint x="760" y="280" as="sourcePoint" />
            <mxPoint x="800" y="280" as="targetPoint" />
          </mxGeometry>
        </mxCell>
        <mxCell id="w3fj2gbgNoyU7OF5bVDR-55" value="" style="endArrow=none;html=1;rounded=0;" parent="1" edge="1">
          <mxGeometry width="50" height="50" relative="1" as="geometry">
            <mxPoint x="800" y="320" as="sourcePoint" />
            <mxPoint x="800" y="280" as="targetPoint" />
          </mxGeometry>
        </mxCell>
        <mxCell id="w3fj2gbgNoyU7OF5bVDR-61" value="&lt;font style=&quot;font-size: 24px;&quot;&gt;User input&lt;/font&gt;" style="text;html=1;align=center;verticalAlign=middle;whiteSpace=wrap;rounded=0;" parent="1" vertex="1">
          <mxGeometry x="90" y="380" width="60" height="30" as="geometry" />
        </mxCell>
        <mxCell id="AQtglL6U4FNc2CjWORVU-33" value="" style="endArrow=none;html=1;rounded=0;" parent="1" edge="1">
          <mxGeometry width="50" height="50" relative="1" as="geometry">
            <mxPoint x="160" y="401" as="sourcePoint" />
            <mxPoint x="200" y="401" as="targetPoint" />
          </mxGeometry>
        </mxCell>
        <mxCell id="AQtglL6U4FNc2CjWORVU-34" value="" style="endArrow=none;html=1;rounded=0;" parent="1" edge="1">
          <mxGeometry width="50" height="50" relative="1" as="geometry">
            <mxPoint x="200" y="401" as="sourcePoint" />
            <mxPoint x="200" y="361" as="targetPoint" />
          </mxGeometry>
        </mxCell>
        <mxCell id="AQtglL6U4FNc2CjWORVU-35" value="" style="endArrow=none;html=1;rounded=0;" parent="1" edge="1">
          <mxGeometry width="50" height="50" relative="1" as="geometry">
            <mxPoint x="200" y="361" as="sourcePoint" />
            <mxPoint x="280" y="361" as="targetPoint" />
          </mxGeometry>
        </mxCell>
        <mxCell id="AQtglL6U4FNc2CjWORVU-67" value="" style="endArrow=none;html=1;rounded=0;" parent="1" edge="1">
          <mxGeometry width="50" height="50" relative="1" as="geometry">
            <mxPoint x="280" y="361" as="sourcePoint" />
            <mxPoint x="360" y="361" as="targetPoint" />
          </mxGeometry>
        </mxCell>
        <mxCell id="AQtglL6U4FNc2CjWORVU-70" value="" style="endArrow=none;html=1;rounded=0;" parent="1" edge="1">
          <mxGeometry width="50" height="50" relative="1" as="geometry">
            <mxPoint x="360" y="361" as="sourcePoint" />
            <mxPoint x="440" y="361" as="targetPoint" />
          </mxGeometry>
        </mxCell>
        <mxCell id="AQtglL6U4FNc2CjWORVU-72" value="" style="endArrow=none;html=1;rounded=0;" parent="1" edge="1">
          <mxGeometry width="50" height="50" relative="1" as="geometry">
            <mxPoint x="440" y="361" as="sourcePoint" />
            <mxPoint x="520" y="361" as="targetPoint" />
          </mxGeometry>
        </mxCell>
        <mxCell id="AQtglL6U4FNc2CjWORVU-74" value="" style="endArrow=none;html=1;rounded=0;" parent="1" edge="1">
          <mxGeometry width="50" height="50" relative="1" as="geometry">
            <mxPoint x="520" y="361" as="sourcePoint" />
            <mxPoint x="600" y="361" as="targetPoint" />
          </mxGeometry>
        </mxCell>
        <mxCell id="AQtglL6U4FNc2CjWORVU-76" value="" style="endArrow=none;html=1;rounded=0;" parent="1" edge="1">
          <mxGeometry width="50" height="50" relative="1" as="geometry">
            <mxPoint x="600" y="361" as="sourcePoint" />
            <mxPoint x="680" y="361" as="targetPoint" />
          </mxGeometry>
        </mxCell>
        <mxCell id="AQtglL6U4FNc2CjWORVU-78" value="" style="endArrow=none;html=1;rounded=0;" parent="1" edge="1">
          <mxGeometry width="50" height="50" relative="1" as="geometry">
            <mxPoint x="680" y="361" as="sourcePoint" />
            <mxPoint x="760" y="361" as="targetPoint" />
          </mxGeometry>
        </mxCell>
        <mxCell id="AQtglL6U4FNc2CjWORVU-80" value="" style="endArrow=none;html=1;rounded=0;" parent="1" edge="1">
          <mxGeometry width="50" height="50" relative="1" as="geometry">
            <mxPoint x="760" y="361" as="sourcePoint" />
            <mxPoint x="840" y="361" as="targetPoint" />
          </mxGeometry>
        </mxCell>
        <mxCell id="AQtglL6U4FNc2CjWORVU-82" value="" style="endArrow=none;html=1;rounded=0;" parent="1" edge="1">
          <mxGeometry width="50" height="50" relative="1" as="geometry">
            <mxPoint x="800" y="320" as="sourcePoint" />
            <mxPoint x="840" y="320" as="targetPoint" />
          </mxGeometry>
        </mxCell>
        <mxCell id="AQtglL6U4FNc2CjWORVU-83" value="&lt;font style=&quot;font-size: 24px;&quot;&gt;0xA&lt;/font&gt;" style="text;html=1;align=center;verticalAlign=middle;resizable=0;points=[];autosize=1;strokeColor=none;fillColor=none;" parent="1" vertex="1">
          <mxGeometry x="460" y="370" width="60" height="40" as="geometry" />
        </mxCell>
        <mxCell id="AQtglL6U4FNc2CjWORVU-93" value="&lt;font style=&quot;font-size: 72px;&quot;&gt;...&lt;/font&gt;" style="text;html=1;align=center;verticalAlign=middle;resizable=0;points=[];autosize=1;strokeColor=none;fillColor=none;" parent="1" vertex="1">
          <mxGeometry x="865" y="321" width="80" height="100" as="geometry" />
        </mxCell>
        <mxCell id="AQtglL6U4FNc2CjWORVU-94" value="&lt;font style=&quot;font-size: 72px;&quot;&gt;...&lt;/font&gt;" style="text;html=1;align=center;verticalAlign=middle;resizable=0;points=[];autosize=1;strokeColor=none;fillColor=none;" parent="1" vertex="1">
          <mxGeometry x="865" y="240" width="80" height="100" as="geometry" />
        </mxCell>
        <mxCell id="AQtglL6U4FNc2CjWORVU-96" value="" style="endArrow=none;html=1;rounded=0;" parent="1" edge="1">
          <mxGeometry width="50" height="50" relative="1" as="geometry">
            <mxPoint x="961" y="320" as="sourcePoint" />
            <mxPoint x="961" y="280" as="targetPoint" />
          </mxGeometry>
        </mxCell>
        <mxCell id="AQtglL6U4FNc2CjWORVU-97" value="" style="endArrow=none;html=1;rounded=0;" parent="1" edge="1">
          <mxGeometry width="50" height="50" relative="1" as="geometry">
            <mxPoint x="961" y="280" as="sourcePoint" />
            <mxPoint x="1001" y="280" as="targetPoint" />
          </mxGeometry>
        </mxCell>
        <mxCell id="AQtglL6U4FNc2CjWORVU-98" value="" style="endArrow=none;html=1;rounded=0;" parent="1" edge="1">
          <mxGeometry width="50" height="50" relative="1" as="geometry">
            <mxPoint x="1001" y="320" as="sourcePoint" />
            <mxPoint x="1001" y="280" as="targetPoint" />
          </mxGeometry>
        </mxCell>
        <mxCell id="AQtglL6U4FNc2CjWORVU-99" value="" style="endArrow=none;html=1;rounded=0;" parent="1" edge="1">
          <mxGeometry width="50" height="50" relative="1" as="geometry">
            <mxPoint x="1001" y="320" as="sourcePoint" />
            <mxPoint x="1041" y="320" as="targetPoint" />
          </mxGeometry>
        </mxCell>
        <mxCell id="AQtglL6U4FNc2CjWORVU-100" value="" style="endArrow=none;html=1;rounded=0;" parent="1" edge="1">
          <mxGeometry width="50" height="50" relative="1" as="geometry">
            <mxPoint x="1041" y="320" as="sourcePoint" />
            <mxPoint x="1041" y="280" as="targetPoint" />
          </mxGeometry>
        </mxCell>
        <mxCell id="AQtglL6U4FNc2CjWORVU-101" value="" style="endArrow=none;html=1;rounded=0;" parent="1" edge="1">
          <mxGeometry width="50" height="50" relative="1" as="geometry">
            <mxPoint x="1041" y="280" as="sourcePoint" />
            <mxPoint x="1081" y="280" as="targetPoint" />
          </mxGeometry>
        </mxCell>
        <mxCell id="AQtglL6U4FNc2CjWORVU-102" value="" style="endArrow=none;html=1;rounded=0;" parent="1" edge="1">
          <mxGeometry width="50" height="50" relative="1" as="geometry">
            <mxPoint x="1081" y="320" as="sourcePoint" />
            <mxPoint x="1081" y="280" as="targetPoint" />
          </mxGeometry>
        </mxCell>
        <mxCell id="AQtglL6U4FNc2CjWORVU-103" value="" style="endArrow=none;html=1;rounded=0;" parent="1" edge="1">
          <mxGeometry width="50" height="50" relative="1" as="geometry">
            <mxPoint x="1081" y="320" as="sourcePoint" />
            <mxPoint x="1121" y="320" as="targetPoint" />
          </mxGeometry>
        </mxCell>
        <mxCell id="AQtglL6U4FNc2CjWORVU-104" value="" style="endArrow=none;html=1;rounded=0;" parent="1" edge="1">
          <mxGeometry width="50" height="50" relative="1" as="geometry">
            <mxPoint x="1121" y="320" as="sourcePoint" />
            <mxPoint x="1121" y="280" as="targetPoint" />
          </mxGeometry>
        </mxCell>
        <mxCell id="AQtglL6U4FNc2CjWORVU-105" value="" style="endArrow=none;html=1;rounded=0;" parent="1" edge="1">
          <mxGeometry width="50" height="50" relative="1" as="geometry">
            <mxPoint x="1121" y="280" as="sourcePoint" />
            <mxPoint x="1161" y="280" as="targetPoint" />
          </mxGeometry>
        </mxCell>
        <mxCell id="AQtglL6U4FNc2CjWORVU-106" value="" style="endArrow=none;html=1;rounded=0;" parent="1" edge="1">
          <mxGeometry width="50" height="50" relative="1" as="geometry">
            <mxPoint x="1161" y="320" as="sourcePoint" />
            <mxPoint x="1161" y="280" as="targetPoint" />
          </mxGeometry>
        </mxCell>
        <mxCell id="AQtglL6U4FNc2CjWORVU-107" value="" style="endArrow=none;html=1;rounded=0;" parent="1" edge="1">
          <mxGeometry width="50" height="50" relative="1" as="geometry">
            <mxPoint x="1161" y="320" as="sourcePoint" />
            <mxPoint x="1201" y="320" as="targetPoint" />
          </mxGeometry>
        </mxCell>
        <mxCell id="AQtglL6U4FNc2CjWORVU-108" value="" style="endArrow=none;html=1;rounded=0;" parent="1" edge="1">
          <mxGeometry width="50" height="50" relative="1" as="geometry">
            <mxPoint x="1201" y="320" as="sourcePoint" />
            <mxPoint x="1201" y="280" as="targetPoint" />
          </mxGeometry>
        </mxCell>
        <mxCell id="AQtglL6U4FNc2CjWORVU-111" value="" style="endArrow=none;html=1;rounded=0;" parent="1" edge="1">
          <mxGeometry width="50" height="50" relative="1" as="geometry">
            <mxPoint x="961" y="361" as="sourcePoint" />
            <mxPoint x="1041" y="361" as="targetPoint" />
          </mxGeometry>
        </mxCell>
        <mxCell id="AQtglL6U4FNc2CjWORVU-113" value="" style="endArrow=none;html=1;rounded=0;" parent="1" edge="1">
          <mxGeometry width="50" height="50" relative="1" as="geometry">
            <mxPoint x="1041" y="361" as="sourcePoint" />
            <mxPoint x="1121" y="361" as="targetPoint" />
          </mxGeometry>
        </mxCell>
        <mxCell id="AQtglL6U4FNc2CjWORVU-115" value="" style="endArrow=none;html=1;rounded=0;" parent="1" edge="1">
          <mxGeometry width="50" height="50" relative="1" as="geometry">
            <mxPoint x="1121" y="361" as="sourcePoint" />
            <mxPoint x="1201" y="361" as="targetPoint" />
          </mxGeometry>
        </mxCell>
        <mxCell id="AQtglL6U4FNc2CjWORVU-116" value="" style="endArrow=none;html=1;rounded=0;" parent="1" edge="1">
          <mxGeometry width="50" height="50" relative="1" as="geometry">
            <mxPoint x="1201" y="401" as="sourcePoint" />
            <mxPoint x="1201" y="361" as="targetPoint" />
          </mxGeometry>
        </mxCell>
        <mxCell id="AQtglL6U4FNc2CjWORVU-134" value="" style="endArrow=none;html=1;rounded=0;" parent="1" edge="1">
          <mxGeometry width="50" height="50" relative="1" as="geometry">
            <mxPoint x="1201" y="321" as="sourcePoint" />
            <mxPoint x="1201" y="281" as="targetPoint" />
          </mxGeometry>
        </mxCell>
        <mxCell id="AQtglL6U4FNc2CjWORVU-135" value="" style="endArrow=none;html=1;rounded=0;" parent="1" edge="1">
          <mxGeometry width="50" height="50" relative="1" as="geometry">
            <mxPoint x="1201" y="281" as="sourcePoint" />
            <mxPoint x="1241" y="281" as="targetPoint" />
          </mxGeometry>
        </mxCell>
        <mxCell id="AQtglL6U4FNc2CjWORVU-136" value="" style="endArrow=none;html=1;rounded=0;" parent="1" edge="1">
          <mxGeometry width="50" height="50" relative="1" as="geometry">
            <mxPoint x="1241" y="321" as="sourcePoint" />
            <mxPoint x="1241" y="281" as="targetPoint" />
          </mxGeometry>
        </mxCell>
        <mxCell id="AQtglL6U4FNc2CjWORVU-137" value="" style="endArrow=none;html=1;rounded=0;" parent="1" edge="1">
          <mxGeometry width="50" height="50" relative="1" as="geometry">
            <mxPoint x="1241" y="321" as="sourcePoint" />
            <mxPoint x="1281" y="321" as="targetPoint" />
          </mxGeometry>
        </mxCell>
        <mxCell id="AQtglL6U4FNc2CjWORVU-138" value="" style="endArrow=none;html=1;rounded=0;" parent="1" edge="1">
          <mxGeometry width="50" height="50" relative="1" as="geometry">
            <mxPoint x="1281" y="321" as="sourcePoint" />
            <mxPoint x="1281" y="281" as="targetPoint" />
          </mxGeometry>
        </mxCell>
        <mxCell id="AQtglL6U4FNc2CjWORVU-139" value="" style="endArrow=none;html=1;rounded=0;" parent="1" edge="1">
          <mxGeometry width="50" height="50" relative="1" as="geometry">
            <mxPoint x="1281" y="281" as="sourcePoint" />
            <mxPoint x="1321" y="281" as="targetPoint" />
          </mxGeometry>
        </mxCell>
        <mxCell id="AQtglL6U4FNc2CjWORVU-140" value="" style="endArrow=none;html=1;rounded=0;" parent="1" edge="1">
          <mxGeometry width="50" height="50" relative="1" as="geometry">
            <mxPoint x="1321" y="321" as="sourcePoint" />
            <mxPoint x="1321" y="281" as="targetPoint" />
          </mxGeometry>
        </mxCell>
        <mxCell id="AQtglL6U4FNc2CjWORVU-141" value="" style="endArrow=none;html=1;rounded=0;" parent="1" edge="1">
          <mxGeometry width="50" height="50" relative="1" as="geometry">
            <mxPoint x="1321" y="321" as="sourcePoint" />
            <mxPoint x="1361" y="321" as="targetPoint" />
          </mxGeometry>
        </mxCell>
        <mxCell id="AQtglL6U4FNc2CjWORVU-142" value="" style="endArrow=none;html=1;rounded=0;exitX=1.013;exitY=0.933;exitDx=0;exitDy=0;exitPerimeter=0;" parent="1" edge="1">
          <mxGeometry width="50" height="50" relative="1" as="geometry">
            <mxPoint x="1201.17" y="400.31999999999994" as="sourcePoint" />
            <mxPoint x="1360" y="400" as="targetPoint" />
          </mxGeometry>
        </mxCell>
        <mxCell id="tJ1_wglelhLoEv2YAxrx-1" value="&lt;font style=&quot;font-size: 24px;&quot;&gt;Out&lt;/font&gt;" style="text;html=1;align=center;verticalAlign=middle;whiteSpace=wrap;rounded=0;" vertex="1" parent="1">
          <mxGeometry x="92" y="459" width="60" height="30" as="geometry" />
        </mxCell>
        <mxCell id="tJ1_wglelhLoEv2YAxrx-2" value="" style="endArrow=none;html=1;rounded=0;" edge="1" parent="1">
          <mxGeometry width="50" height="50" relative="1" as="geometry">
            <mxPoint x="162" y="480" as="sourcePoint" />
            <mxPoint x="202" y="480" as="targetPoint" />
          </mxGeometry>
        </mxCell>
        <mxCell id="tJ1_wglelhLoEv2YAxrx-3" value="" style="endArrow=none;html=1;rounded=0;" edge="1" parent="1">
          <mxGeometry width="50" height="50" relative="1" as="geometry">
            <mxPoint x="202" y="480" as="sourcePoint" />
            <mxPoint x="202" y="440" as="targetPoint" />
          </mxGeometry>
        </mxCell>
        <mxCell id="tJ1_wglelhLoEv2YAxrx-4" value="" style="endArrow=none;html=1;rounded=0;" edge="1" parent="1">
          <mxGeometry width="50" height="50" relative="1" as="geometry">
            <mxPoint x="202" y="440" as="sourcePoint" />
            <mxPoint x="282" y="440" as="targetPoint" />
          </mxGeometry>
        </mxCell>
        <mxCell id="tJ1_wglelhLoEv2YAxrx-5" value="" style="endArrow=none;html=1;rounded=0;" edge="1" parent="1">
          <mxGeometry width="50" height="50" relative="1" as="geometry">
            <mxPoint x="282" y="480" as="sourcePoint" />
            <mxPoint x="282" y="440" as="targetPoint" />
          </mxGeometry>
        </mxCell>
        <mxCell id="tJ1_wglelhLoEv2YAxrx-6" value="" style="endArrow=none;html=1;rounded=0;" edge="1" parent="1">
          <mxGeometry width="50" height="50" relative="1" as="geometry">
            <mxPoint x="282" y="440" as="sourcePoint" />
            <mxPoint x="362" y="440" as="targetPoint" />
          </mxGeometry>
        </mxCell>
        <mxCell id="tJ1_wglelhLoEv2YAxrx-7" value="" style="endArrow=none;html=1;rounded=0;" edge="1" parent="1">
          <mxGeometry width="50" height="50" relative="1" as="geometry">
            <mxPoint x="362" y="480" as="sourcePoint" />
            <mxPoint x="362" y="440" as="targetPoint" />
          </mxGeometry>
        </mxCell>
        <mxCell id="tJ1_wglelhLoEv2YAxrx-8" value="" style="endArrow=none;html=1;rounded=0;" edge="1" parent="1">
          <mxGeometry width="50" height="50" relative="1" as="geometry">
            <mxPoint x="362" y="440" as="sourcePoint" />
            <mxPoint x="442" y="440" as="targetPoint" />
          </mxGeometry>
        </mxCell>
        <mxCell id="tJ1_wglelhLoEv2YAxrx-9" value="" style="endArrow=none;html=1;rounded=0;" edge="1" parent="1">
          <mxGeometry width="50" height="50" relative="1" as="geometry">
            <mxPoint x="442" y="480" as="sourcePoint" />
            <mxPoint x="442" y="440" as="targetPoint" />
          </mxGeometry>
        </mxCell>
        <mxCell id="tJ1_wglelhLoEv2YAxrx-10" value="" style="endArrow=none;html=1;rounded=0;" edge="1" parent="1">
          <mxGeometry width="50" height="50" relative="1" as="geometry">
            <mxPoint x="442" y="440" as="sourcePoint" />
            <mxPoint x="522" y="440" as="targetPoint" />
          </mxGeometry>
        </mxCell>
        <mxCell id="tJ1_wglelhLoEv2YAxrx-11" value="" style="endArrow=none;html=1;rounded=0;" edge="1" parent="1">
          <mxGeometry width="50" height="50" relative="1" as="geometry">
            <mxPoint x="522" y="480" as="sourcePoint" />
            <mxPoint x="522" y="440" as="targetPoint" />
          </mxGeometry>
        </mxCell>
        <mxCell id="tJ1_wglelhLoEv2YAxrx-12" value="" style="endArrow=none;html=1;rounded=0;" edge="1" parent="1">
          <mxGeometry width="50" height="50" relative="1" as="geometry">
            <mxPoint x="522" y="440" as="sourcePoint" />
            <mxPoint x="602" y="440" as="targetPoint" />
          </mxGeometry>
        </mxCell>
        <mxCell id="tJ1_wglelhLoEv2YAxrx-13" value="" style="endArrow=none;html=1;rounded=0;" edge="1" parent="1">
          <mxGeometry width="50" height="50" relative="1" as="geometry">
            <mxPoint x="602" y="480" as="sourcePoint" />
            <mxPoint x="602" y="440" as="targetPoint" />
          </mxGeometry>
        </mxCell>
        <mxCell id="tJ1_wglelhLoEv2YAxrx-14" value="" style="endArrow=none;html=1;rounded=0;" edge="1" parent="1">
          <mxGeometry width="50" height="50" relative="1" as="geometry">
            <mxPoint x="602" y="440" as="sourcePoint" />
            <mxPoint x="682" y="440" as="targetPoint" />
          </mxGeometry>
        </mxCell>
        <mxCell id="tJ1_wglelhLoEv2YAxrx-15" value="" style="endArrow=none;html=1;rounded=0;" edge="1" parent="1">
          <mxGeometry width="50" height="50" relative="1" as="geometry">
            <mxPoint x="682" y="480" as="sourcePoint" />
            <mxPoint x="682" y="440" as="targetPoint" />
          </mxGeometry>
        </mxCell>
        <mxCell id="tJ1_wglelhLoEv2YAxrx-16" value="" style="endArrow=none;html=1;rounded=0;" edge="1" parent="1">
          <mxGeometry width="50" height="50" relative="1" as="geometry">
            <mxPoint x="682" y="440" as="sourcePoint" />
            <mxPoint x="762" y="440" as="targetPoint" />
          </mxGeometry>
        </mxCell>
        <mxCell id="tJ1_wglelhLoEv2YAxrx-17" value="" style="endArrow=none;html=1;rounded=0;" edge="1" parent="1">
          <mxGeometry width="50" height="50" relative="1" as="geometry">
            <mxPoint x="762" y="480" as="sourcePoint" />
            <mxPoint x="762" y="440" as="targetPoint" />
          </mxGeometry>
        </mxCell>
        <mxCell id="tJ1_wglelhLoEv2YAxrx-18" value="" style="endArrow=none;html=1;rounded=0;" edge="1" parent="1">
          <mxGeometry width="50" height="50" relative="1" as="geometry">
            <mxPoint x="762" y="440" as="sourcePoint" />
            <mxPoint x="842" y="440" as="targetPoint" />
          </mxGeometry>
        </mxCell>
        <mxCell id="tJ1_wglelhLoEv2YAxrx-19" value="" style="endArrow=none;html=1;rounded=0;" edge="1" parent="1">
          <mxGeometry width="50" height="50" relative="1" as="geometry">
            <mxPoint x="842" y="480" as="sourcePoint" />
            <mxPoint x="842" y="440" as="targetPoint" />
          </mxGeometry>
        </mxCell>
        <mxCell id="tJ1_wglelhLoEv2YAxrx-20" value="&lt;font style=&quot;font-size: 24px;&quot;&gt;0xA&lt;/font&gt;" style="text;html=1;align=center;verticalAlign=middle;resizable=0;points=[];autosize=1;strokeColor=none;fillColor=none;" vertex="1" parent="1">
          <mxGeometry x="211" y="442" width="60" height="40" as="geometry" />
        </mxCell>
        <mxCell id="tJ1_wglelhLoEv2YAxrx-21" value="&lt;font style=&quot;font-size: 24px;&quot;&gt;0xA&lt;/font&gt;" style="text;html=1;align=center;verticalAlign=middle;resizable=0;points=[];autosize=1;strokeColor=none;fillColor=none;" vertex="1" parent="1">
          <mxGeometry x="292" y="442" width="60" height="40" as="geometry" />
        </mxCell>
        <mxCell id="tJ1_wglelhLoEv2YAxrx-22" value="&lt;font style=&quot;font-size: 24px;&quot;&gt;0xA&lt;/font&gt;" style="text;html=1;align=center;verticalAlign=middle;resizable=0;points=[];autosize=1;strokeColor=none;fillColor=none;" vertex="1" parent="1">
          <mxGeometry x="372" y="442" width="60" height="40" as="geometry" />
        </mxCell>
        <mxCell id="tJ1_wglelhLoEv2YAxrx-23" value="&lt;font style=&quot;font-size: 24px;&quot;&gt;0xA&lt;/font&gt;" style="text;html=1;align=center;verticalAlign=middle;resizable=0;points=[];autosize=1;strokeColor=none;fillColor=none;" vertex="1" parent="1">
          <mxGeometry x="449" y="442" width="60" height="40" as="geometry" />
        </mxCell>
        <mxCell id="tJ1_wglelhLoEv2YAxrx-24" value="&lt;font style=&quot;font-size: 24px;&quot;&gt;0xA&lt;/font&gt;" style="text;html=1;align=center;verticalAlign=middle;resizable=0;points=[];autosize=1;strokeColor=none;fillColor=none;" vertex="1" parent="1">
          <mxGeometry x="528" y="442" width="60" height="40" as="geometry" />
        </mxCell>
        <mxCell id="tJ1_wglelhLoEv2YAxrx-25" value="&lt;font style=&quot;font-size: 24px;&quot;&gt;0xA&lt;/font&gt;" style="text;html=1;align=center;verticalAlign=middle;resizable=0;points=[];autosize=1;strokeColor=none;fillColor=none;" vertex="1" parent="1">
          <mxGeometry x="611" y="442" width="60" height="40" as="geometry" />
        </mxCell>
        <mxCell id="tJ1_wglelhLoEv2YAxrx-26" value="&lt;span style=&quot;font-size: 24px;&quot;&gt;0xA&lt;/span&gt;" style="text;html=1;align=center;verticalAlign=middle;resizable=0;points=[];autosize=1;strokeColor=none;fillColor=none;" vertex="1" parent="1">
          <mxGeometry x="692" y="442" width="60" height="40" as="geometry" />
        </mxCell>
        <mxCell id="tJ1_wglelhLoEv2YAxrx-27" value="&lt;font style=&quot;font-size: 24px;&quot;&gt;0xA&lt;/font&gt;" style="text;html=1;align=center;verticalAlign=middle;resizable=0;points=[];autosize=1;strokeColor=none;fillColor=none;" vertex="1" parent="1">
          <mxGeometry x="774" y="442" width="60" height="40" as="geometry" />
        </mxCell>
        <mxCell id="tJ1_wglelhLoEv2YAxrx-28" value="" style="endArrow=none;html=1;rounded=0;" edge="1" parent="1">
          <mxGeometry width="50" height="50" relative="1" as="geometry">
            <mxPoint x="963" y="480" as="sourcePoint" />
            <mxPoint x="963" y="440" as="targetPoint" />
          </mxGeometry>
        </mxCell>
        <mxCell id="tJ1_wglelhLoEv2YAxrx-29" value="" style="endArrow=none;html=1;rounded=0;" edge="1" parent="1">
          <mxGeometry width="50" height="50" relative="1" as="geometry">
            <mxPoint x="963" y="440" as="sourcePoint" />
            <mxPoint x="1043" y="440" as="targetPoint" />
          </mxGeometry>
        </mxCell>
        <mxCell id="tJ1_wglelhLoEv2YAxrx-30" value="" style="endArrow=none;html=1;rounded=0;" edge="1" parent="1">
          <mxGeometry width="50" height="50" relative="1" as="geometry">
            <mxPoint x="1043" y="480" as="sourcePoint" />
            <mxPoint x="1043" y="440" as="targetPoint" />
          </mxGeometry>
        </mxCell>
        <mxCell id="tJ1_wglelhLoEv2YAxrx-31" value="" style="endArrow=none;html=1;rounded=0;" edge="1" parent="1">
          <mxGeometry width="50" height="50" relative="1" as="geometry">
            <mxPoint x="1043" y="440" as="sourcePoint" />
            <mxPoint x="1123" y="440" as="targetPoint" />
          </mxGeometry>
        </mxCell>
        <mxCell id="tJ1_wglelhLoEv2YAxrx-32" value="" style="endArrow=none;html=1;rounded=0;" edge="1" parent="1">
          <mxGeometry width="50" height="50" relative="1" as="geometry">
            <mxPoint x="1123" y="480" as="sourcePoint" />
            <mxPoint x="1123" y="440" as="targetPoint" />
          </mxGeometry>
        </mxCell>
        <mxCell id="tJ1_wglelhLoEv2YAxrx-33" value="" style="endArrow=none;html=1;rounded=0;" edge="1" parent="1">
          <mxGeometry width="50" height="50" relative="1" as="geometry">
            <mxPoint x="1123" y="440" as="sourcePoint" />
            <mxPoint x="1203" y="440" as="targetPoint" />
          </mxGeometry>
        </mxCell>
        <mxCell id="tJ1_wglelhLoEv2YAxrx-34" value="" style="endArrow=none;html=1;rounded=0;" edge="1" parent="1">
          <mxGeometry width="50" height="50" relative="1" as="geometry">
            <mxPoint x="1203" y="480" as="sourcePoint" />
            <mxPoint x="1203" y="440" as="targetPoint" />
          </mxGeometry>
        </mxCell>
        <mxCell id="tJ1_wglelhLoEv2YAxrx-35" value="&lt;font style=&quot;font-size: 24px;&quot;&gt;0xA&lt;/font&gt;" style="text;html=1;align=center;verticalAlign=middle;resizable=0;points=[];autosize=1;strokeColor=none;fillColor=none;" vertex="1" parent="1">
          <mxGeometry x="972" y="442" width="60" height="40" as="geometry" />
        </mxCell>
        <mxCell id="tJ1_wglelhLoEv2YAxrx-36" value="&lt;font style=&quot;font-size: 24px;&quot;&gt;0xA&lt;/font&gt;" style="text;html=1;align=center;verticalAlign=middle;resizable=0;points=[];autosize=1;strokeColor=none;fillColor=none;" vertex="1" parent="1">
          <mxGeometry x="1053" y="442" width="60" height="40" as="geometry" />
        </mxCell>
        <mxCell id="tJ1_wglelhLoEv2YAxrx-37" value="&lt;font style=&quot;font-size: 24px;&quot;&gt;0xA&lt;/font&gt;" style="text;html=1;align=center;verticalAlign=middle;resizable=0;points=[];autosize=1;strokeColor=none;fillColor=none;" vertex="1" parent="1">
          <mxGeometry x="1133" y="442" width="60" height="40" as="geometry" />
        </mxCell>
        <mxCell id="tJ1_wglelhLoEv2YAxrx-38" value="" style="endArrow=none;html=1;rounded=0;exitX=1.013;exitY=0.933;exitDx=0;exitDy=0;exitPerimeter=0;" edge="1" parent="1">
          <mxGeometry width="50" height="50" relative="1" as="geometry">
            <mxPoint x="1203.17" y="479.31999999999994" as="sourcePoint" />
            <mxPoint x="1362" y="479" as="targetPoint" />
          </mxGeometry>
        </mxCell>
        <mxCell id="tJ1_wglelhLoEv2YAxrx-39" value="&lt;font style=&quot;font-size: 24px;&quot;&gt;0xA&lt;/font&gt;" style="text;html=1;align=center;verticalAlign=middle;resizable=0;points=[];autosize=1;strokeColor=none;fillColor=none;" vertex="1" parent="1">
          <mxGeometry x="1030" y="370" width="60" height="40" as="geometry" />
        </mxCell>
        <mxCell id="tJ1_wglelhLoEv2YAxrx-40" value="&lt;font style=&quot;font-size: 72px;&quot;&gt;...&lt;/font&gt;" style="text;html=1;align=center;verticalAlign=middle;resizable=0;points=[];autosize=1;strokeColor=none;fillColor=none;" vertex="1" parent="1">
          <mxGeometry x="865" y="390" width="80" height="100" as="geometry" />
        </mxCell>
      </root>
    </mxGraphModel>
  </diagram>
</mxfile>
